# xmcd
#
# Track frame offsets: 
#        150
#        17562
#        39983
#        66999
#        91659
#        108792
#        128202
#        138065
#        166001
#        180685
#        204337
#        217488
#        244956
#        272480
#        303263
#        316999
#        333011
#
# Disc length: 4785 seconds
#
# Revision: 0
# Processed by: cddbd v1.5.2PL0 Copyright (c) Steve Scherf et al.
# Submitted via: ExactAudioCopy v1.3
#
DISCID=e012af11
DTITLE=Various Artist - Akella Presents - vol.116 - Blues Instrumenta
DTITLE=l  CD1
DYEAR=2017
DGENRE=Blues
TTITLE0=Melvin Taylor - Passionate
TTITLE1=Scott Romig - Chitlins Con Carne
TTITLE2=Ronnie Earl - In Memory Of T-Bone
TTITLE3=Big T and the Family Band - Ghetto
TTITLE4=Brad Wilson - Cruisin' The Coast
TTITLE5=Rick Estrin - Porn Bred
TTITLE6=Jimmie Bratcher - Going To Grammy's House
TTITLE7=Tom Principato - In A Dream
TTITLE8=Mama's Boys - Chicken and Waffles
TTITLE9=Roy Rogers - Blues On The Range
TTITLE10=Arlen Roth - Stranger On the Shore
TTITLE11=Jimmy Thackery - The Barber's Guitar
TTITLE12=Enrico Crivellaro - Last Night In Atlanta
TTITLE13=Barry Levenson - The Visit
TTITLE14=Jimmy Adler - Swing It
TTITLE15=Willie May - Dos Teresa
TTITLE16=Gregor Hilden - Mr. Magic
EXTD=
EXTT0=
EXTT1=
EXTT2=
EXTT3=
EXTT4=
EXTT5=
EXTT6=
EXTT7=
EXTT8=
EXTT9=
EXTT10=
EXTT11=
EXTT12=
EXTT13=
EXTT14=
EXTT15=
EXTT16=
PLAYORDER=
